<?xml version="1.0" encoding="UTF-8" standalone="no"?>
<svg
   xmlns:dc="http://purl.org/dc/elements/1.1/"
   xmlns:cc="http://creativecommons.org/ns#"
   xmlns:rdf="http://www.w3.org/1999/02/22-rdf-syntax-ns#"
   xmlns:svg="http://www.w3.org/2000/svg"
   xmlns="http://www.w3.org/2000/svg"
   xmlns:sodipodi="http://sodipodi.sourceforge.net/DTD/sodipodi-0.dtd"
   xmlns:inkscape="http://www.inkscape.org/namespaces/inkscape"
   width="297mm"
   height="210mm"
   viewBox="0 0 1052.3622 744.09448"
   id="svg2"
   version="1.1"
   inkscape:version="1.0.1 (3bc2e813f5, 2020-09-07)"
   sodipodi:docname="Icaro-nero.svg">
  <defs
     id="defs4">
    <clipPath
       clipPathUnits="userSpaceOnUse"
       id="clipPath3349">
      <rect
         style="fill:#999999"
         id="rect3351"
         width="391.42856"
         height="234.28572"
         x="331.42856"
         y="858.07648" />
    </clipPath>
  </defs>
  <sodipodi:namedview
     id="base"
     pagecolor="#ffffff"
     bordercolor="#666666"
     borderopacity="1.0"
     inkscape:pageopacity="0.0"
     inkscape:pageshadow="2"
     inkscape:zoom="0.98994949"
     inkscape:cx="175.18952"
     inkscape:cy="487.34972"
     inkscape:document-units="px"
     inkscape:current-layer="layer1"
     showgrid="false"
     inkscape:window-width="3840"
     inkscape:window-height="2066"
     inkscape:window-x="-11"
     inkscape:window-y="-11"
     inkscape:window-maximized="1"
     inkscape:document-rotation="0" />
  <metadata
     id="metadata7">
    <rdf:RDF>
      <cc:Work
         rdf:about="">
        <dc:format>image/svg+xml</dc:format>
        <dc:type
           rdf:resource="http://purl.org/dc/dcmitype/StillImage" />
        <dc:title />
      </cc:Work>
    </rdf:RDF>
  </metadata>
  <g
     inkscape:label="Livello 1"
     inkscape:groupmode="layer"
     id="layer1"
     transform="translate(0,-308.26772)">
    <path
       style="fill:#000000;fill-opacity:1"
       d="m 311.27297,951.53419 c -39.17205,-11.22692 -80.00041,-28.8231 -102.00281,-43.96098 -26.2016,-18.02725 -17.50359,-19.9491 11.43076,-2.52586 23.97963,14.43972 105.18622,42.5131 122.95913,42.50702 5.70315,-0.002 21.91614,-5.83957 36.02886,-12.97296 17.62234,-8.9073 31.30192,-12.96783 43.67387,-12.96366 18.0429,0.003 34.90457,4.37278 31.19745,8.07975 -3.68536,3.68551 -99.74241,29.86488 -108.52997,29.57858 -4.80507,-0.15693 -20.44583,-3.64004 -34.75729,-7.74189 z m 371.6456,6.03939 c -1.09291,-1.09302 -21.00803,-6.94764 -44.25578,-13.01042 -23.24777,-6.06308 -42.47815,-12.82499 -42.73417,-15.02676 -0.67001,-5.76236 23.27493,-11.10682 38.61189,-8.61809 7.19291,1.16733 18.2048,5.77294 24.47098,10.23508 6.26614,4.46181 19.62627,10.31449 29.68916,13.00593 16.61538,4.44388 21.90891,3.83475 57.62424,-6.63155 43.9524,-12.87977 68.1956,-22.71292 90.2895,-36.62134 19.72965,-12.42019 28.28332,-11.78575 13.08997,0.97133 -15.92197,13.36848 -36.29689,23.80372 -69.08681,35.38355 -54.52737,19.25639 -91.14224,26.8689 -97.69898,20.31227 z M 303.26656,895.79225 c -45.33507,-2.28215 -46.61665,-2.61522 -84.06736,-21.84566 -20.91675,-10.74077 -42.91787,-23.62148 -48.89137,-28.62421 -5.97351,-5.00242 -13.17929,-9.92189 -16.01283,-10.93196 -2.83356,-1.01009 -3.83747,-3.24741 -2.2309,-4.97199 1.60656,-1.72426 9.71307,1.3422 18.01444,6.81442 14.83367,9.77872 69.50848,35.32399 89.15274,41.65449 5.50441,1.77358 23.72195,2.73404 40.48337,2.13388 31.55857,-1.13019 62.71959,7.19649 57.64705,15.40401 -1.38927,2.2479 -3.77075,3.77167 -5.29214,3.38576 -1.52138,-0.38591 -23.48272,-1.74444 -48.803,-3.01874 z m 384.3079,-2.1707 c 0,-7.35629 30.53869,-14.05094 62.86217,-13.78063 28.66863,0.24019 39.68227,-1.53437 59.23566,-9.54206 45.76233,-18.74141 62.92574,-26.93933 73.01184,-34.87306 5.57352,-4.38399 13.04322,-7.96221 16.59937,-7.95132 12.11233,0.0352 -16.33436,19.45303 -63.07539,43.05081 l -45.52187,22.98225 -51.55591,1.31913 c -28.35572,0.72539 -51.55587,0.18255 -51.55587,-1.20512 z M 251.93259,837.36849 c -22.72931,-7.32172 -48.14673,-14.46472 -56.48324,-15.87321 -24.64028,-4.16268 -52.35035,-25.15615 -72.32713,-54.7959 -9.90793,-14.70041 -21.44614,-30.4628 -25.640497,-35.02806 -6.48532,-7.05847 -6.67383,-8.30008 -1.26041,-8.30008 3.50108,0 11.436457,7.35115 17.634097,16.33563 44.00813,63.79736 56.71303,71.45534 129.36304,77.97384 19.57503,1.75629 29.9439,5.10874 41.8577,13.53276 16.58839,11.72973 22.58325,20.53742 13.51998,19.86392 -2.93567,-0.21777 -23.93428,-6.3872 -46.66354,-13.7089 z m 497.80858,5.96989 c 13.94433,-15.4085 31.71542,-23.27976 57.70569,-25.55935 37.17839,-3.26086 52.14142,-6.44901 70.7123,-15.06647 20.99769,-9.74317 29.68817,-17.98274 49.06903,-46.5224 8.64028,-12.72315 18.64477,-25.56929 22.23212,-28.54671 11.05635,-9.17567 12.34397,-0.83106 1.66368,10.78176 -5.54759,6.03171 -17.82604,22.21043 -27.28546,35.95232 -13.831,20.09258 -21.91873,27.34351 -41.30191,37.02967 -13.25671,6.6242 -27.71023,12.04421 -32.11902,12.04421 -9.00744,0 -42.02835,9.11674 -74.128,20.466 -29.12239,10.29625 -36.24999,10.14092 -26.54847,-0.57903 z M 461.91482,822.45061 c -1.32763,-4.95372 -2.44308,-14.41155 -2.47882,-21.01683 -0.0362,-6.6053 -6.31101,-22.36768 -13.94509,-35.02808 -10.02435,-16.62387 -12.24566,-23.01843 -7.99614,-23.01843 16.78221,0 -9.58852,-28.16849 -54.28012,-57.98118 C 350.84948,663.81631 253.11075,612.90161 200.58096,590.26726 158.5336,572.14962 128.09043,551.8262 92.639533,518.20698 76.967873,503.34506 62.850134,491.18533 61.266754,491.18533 c -5.046697,0 2.172816,60.58797 12.380069,103.89714 11.80023,50.06798 36.597947,102.43028 59.317237,125.25273 19.70876,19.79794 50.80641,34.97009 71.78546,35.02261 16.16962,0.0416 41.197,10.5752 58.48496,24.6175 l 10.00803,8.12905 -10.00803,-2.42241 C 178.54086,765.18136 141.38905,748.92675 114.63318,720.66602 82.378743,686.59744 51.595489,610.93276 43.258601,545.22863 35.419965,483.4513 26.939917,430.20002 20.532898,402.52022 c -9.080067,-39.22817 -5.673659,-51.97045 5.191999,-19.42149 30.2107,90.49855 93.957153,141.95284 253.522413,204.63602 78.35806,30.78194 101.65024,42.09875 128.63673,62.49974 42.74462,32.31364 62.50713,74.61952 66.42288,142.19206 1.93189,33.33872 1.36916,39.03127 -3.85825,39.03127 -3.36603,0 -7.20626,-4.05316 -8.53385,-9.00721 z M 407.08797,669.7023 C 378.88442,642.9548 342.87372,623.05073 275.2441,596.82859 214.30622,573.20113 151.31477,541.64236 121.34973,519.72743 106.06334,508.54775 92.856953,500.10018 92.002103,500.95498 c -3.78448,3.78448 8.363077,18.24436 27.913847,33.22733 27.68448,21.21629 55.84974,37.54499 92.00638,53.34024 44.97827,19.64904 175.00731,85.05502 197.14086,99.16392 10.85023,6.91627 20.75817,11.53277 22.01764,10.25847 1.25945,-1.27431 -9.5373,-13.53341 -23.99286,-27.24264 z M 572.4808,786.94921 c 2.89273,-60.94323 12.06276,-84.77674 45.47857,-118.20286 28.45203,-28.4608 63.39911,-46.82649 161.68887,-84.97206 76.68101,-29.75936 104.18222,-43.06956 146.30509,-70.80962 53.61048,-35.30526 90.24047,-82.84359 106.33387,-137.99985 8.9353,-30.62399 9.0397,-2.49669 0.1422,38.35541 -4.2922,19.70731 -9.9089,52.04441 -12.4817,71.8603 -17.3408,133.56428 -40.77799,196.34757 -90.13746,241.45925 -27.18755,24.84773 -45.52329,33.77232 -96.11881,46.78306 -22.01764,5.66215 -43.63496,11.32171 -48.03848,12.57681 -7.11469,2.02818 -7.33765,1.61472 -2.00161,-3.71242 12.36582,-12.34461 46.10815,-26.89034 62.37927,-26.89034 22.50445,0 61.97123,-20.38562 79.96921,-41.30637 18.86167,-21.92444 42.46279,-72.32662 53.67659,-114.63041 8.7686,-33.07942 17.1557,-99.15532 13.3815,-105.42317 -1.0443,-1.73427 -13.7994,7.97933 -28.34477,21.58576 -34.53255,32.30352 -73.57119,57.25364 -123.0153,78.62062 -58.21361,25.15673 -147.82076,71.16756 -180.14431,92.49952 -15.41236,10.17135 -36.12896,26.62677 -46.03689,36.56818 -16.36573,16.42052 -17.21729,18.18833 -9.30433,19.31499 8.56267,1.21922 8.50778,1.54011 -3.23987,18.94702 -6.76477,10.02339 -14.15,28.49163 -17.0202,42.56243 -2.78856,13.67078 -7.44709,25.64839 -10.35219,26.61685 -4.25013,1.41648 -4.85952,-7.14077 -3.11934,-43.8031 z M 704.89237,651.06478 c 30.44163,-15.47255 81.15889,-39.69401 112.70502,-53.82546 81.71148,-36.60347 113.70803,-56.04608 136.17448,-82.74597 15.23684,-18.10789 9.49163,-18.15522 -14.68986,-0.12073 -35.24135,26.28255 -74.70769,46.44225 -145.89138,74.52249 -84.48833,33.32852 -90.35706,35.95657 -118.95737,53.26939 -22.41284,13.56726 -58.71653,47.27746 -58.71653,54.52199 0,1.91321 7.65615,-1.23908 17.01363,-7.00562 9.35748,-5.76621 41.9204,-23.14334 72.36201,-38.61593 z"
       id="path3363"
       inkscape:connector-curvature="0" />
  </g>
</svg>
