<?xml version="1.0" encoding="UTF-8" standalone="no"?>
<svg
   xmlns:dc="http://purl.org/dc/elements/1.1/"
   xmlns:cc="http://creativecommons.org/ns#"
   xmlns:rdf="http://www.w3.org/1999/02/22-rdf-syntax-ns#"
   xmlns:svg="http://www.w3.org/2000/svg"
   xmlns="http://www.w3.org/2000/svg"
   xmlns:xlink="http://www.w3.org/1999/xlink"
   xmlns:sodipodi="http://sodipodi.sourceforge.net/DTD/sodipodi-0.dtd"
   xmlns:inkscape="http://www.inkscape.org/namespaces/inkscape"
   width="210mm"
   height="210mm"
   viewBox="0 0 210 210"
   version="1.1"
   id="svg18773"
   inkscape:version="1.0.2 (e86c870879, 2021-01-15, custom)"
   sodipodi:docname="Logo Alessandro.svg">
  <metadata
     id="metadata31">
    <rdf:RDF>
      <cc:Work
         rdf:about="">
        <dc:format>image/svg+xml</dc:format>
        <dc:type
           rdf:resource="http://purl.org/dc/dcmitype/StillImage" />
        <dc:title></dc:title>
      </cc:Work>
    </rdf:RDF>
  </metadata>
  <sodipodi:namedview
     id="namedview18775"
     pagecolor="#ffffff"
     bordercolor="#666666"
     borderopacity="1.0"
     inkscape:pageshadow="2"
     inkscape:pageopacity="0.0"
     inkscape:pagecheckerboard="0"
     inkscape:document-units="mm"
     showgrid="false"
     inkscape:zoom="1.0482005"
     inkscape:cx="325.79645"
     inkscape:cy="482.25507"
     inkscape:window-width="3840"
     inkscape:window-height="2066"
     inkscape:window-x="-11"
     inkscape:window-y="-11"
     inkscape:window-maximized="1"
     inkscape:current-layer="layer1"
     inkscape:document-rotation="0" />
  <defs
     id="defs18770">
    <linearGradient
       inkscape:collect="always"
       id="linearGradient20988">
      <stop
         style="stop-color:#ff0000;stop-opacity:1;"
         offset="0"
         id="stop21568" />
      <stop
         style="stop-color:#ff0000;stop-opacity:0;"
         offset="1"
         id="stop21570" />
    </linearGradient>
    <linearGradient
       inkscape:collect="always"
       xlink:href="#linearGradient20988"
       id="linearGradient20990"
       x1="99.075462"
       y1="137.22525"
       x2="154.9563"
       y2="138.00092"
       gradientUnits="userSpaceOnUse"
       gradientTransform="matrix(1.1571853,0,0,0.9684344,-10.329778,8.3647185)" />
  </defs>
  <g
     inkscape:label="Livello 1"
     inkscape:groupmode="layer"
     id="layer1">
    <g
       id="g899"
       transform="matrix(1.2457253,0,0,1.2457253,-27.608182,-46.278639)">
      <path
         id="rect192"
         style="fill:#00d400;fill-rule:evenodd;stroke-width:0.266512"
         inkscape:transform-center-x="-18.5625"
         inkscape:transform-center-y="-1.4278846"
         d="m 95.375924,41.363816 c -0.0096,8.7e-5 -0.01881,5.29e-4 -0.02842,5.29e-4 -0.01236,-3e-6 -0.02479,0 -0.03721,0 L 47.420195,181.82296 60.607504,187.12496 108.53739,46.549559 95.663245,41.373132 c -0.01566,0.01513 -0.04404,0.02241 -0.08268,0.01138 -0.01302,-0.0038 -0.02614,-0.0065 -0.03876,-0.01138 -0.004,-0.0016 -0.01035,-0.0044 -0.01757,-0.0083 -0.02357,0.0016 -0.04722,-2.22e-4 -0.0708,-0.0011 -0.0035,-1.22e-4 -0.0069,-1.04e-4 -0.01035,0 -0.02228,7.93e-4 -0.04489,0 -0.06718,0 z" />
      <path
         style="fill:#00d400;fill-opacity:1;fill-rule:evenodd;stroke:#00d400;stroke-width:0.126208"
         d="m 53.94034,184.37504 c -3.495084,-1.41317 -6.369407,-2.58734 -6.387382,-2.60926 -0.01797,-0.0219 7.705129,-22.72897 17.162457,-50.4601 l 17.195141,-50.420245 7.397794,-0.03256 c 4.068789,-0.01791 7.397798,0.01579 7.397798,0.07488 0,0.08314 -32.617074,95.830215 -35.487858,104.174235 -0.352264,1.02387 -0.704104,1.85727 -0.781865,1.85201 -0.07776,-0.005 -3.001002,-1.16579 -6.496085,-2.57896 z"
         id="path1940" />
      <path
         style="fill:#00d400;fill-opacity:1;fill-rule:evenodd;stroke:#00aa00;stroke-width:0.128267"
         d="m 41.214973,196.96558 c -3.348644,-1.30152 -6.0892,-2.409 -6.090125,-2.46106 -8.19e-4,-0.0521 0.112649,-0.0947 0.252384,-0.0947 0.54334,0 3.423276,-0.6309 3.992272,-0.87458 0.731155,-0.31312 2.295799,-1.75637 3.293416,-3.03788 1.193234,-1.53279 3.31476,-5.27726 4.487041,-7.91957 0.192476,-0.43384 0.411529,-0.78881 0.486781,-0.78881 0.143752,0 12.765523,4.86966 12.860761,4.96186 0.205077,0.19855 -2.518962,5.57761 -3.750795,7.40657 -1.507693,2.23853 -3.011826,3.79422 -4.096895,4.23732 -0.543989,0.22215 -4.248499,0.93722 -4.855352,0.93722 -0.33388,0 -2.439708,-0.75739 -6.579488,-2.36641 z"
         id="path3764" />
      <rect
         style="fill:#00d400;fill-opacity:1;fill-rule:evenodd;stroke:#00d400;stroke-width:0.264583"
         id="rect10300"
         width="13.187252"
         height="5.301806"
         x="47.420071"
         y="181.82306"
         ry="0.94656271" />
      <rect
         style="fill:#00d400;fill-opacity:1;fill-rule:evenodd;stroke:#00d400;stroke-width:0.264583"
         id="rect10302"
         width="0.50483346"
         height="1.0096669"
         x="49.945953"
         y="182.98801"
         ry="0.25241673" />
      <path
         style="fill:none;stroke:#00d400;stroke-width:0.264583px;stroke-linecap:butt;stroke-linejoin:miter;stroke-opacity:1"
         d="m 47.420071,181.82306 c 0,0 1.45311,-0.53887 1.45311,-0.53887 l 11.734141,5.84067"
         id="path10340" />
      <path
         style="fill:#00aa00;stroke:#00d400;stroke-width:0.264583px;stroke-linecap:butt;stroke-linejoin:miter;stroke-opacity:1"
         d="M 81.910556,80.885435 H 96.800805"
         id="path10513" />
      <path
         id="rect192-7"
         style="fill:#00ff00;fill-rule:evenodd;stroke:#00ff00;stroke-width:0.266512"
         inkscape:transform-center-x="18.562496"
         inkscape:transform-center-y="-1.4278776"
         d="m 110.01351,41.343823 c -0.0169,-2.2e-5 -0.0338,5.29e-4 -0.0506,5.29e-4 l -12.770283,5.134054 47.930403,140.575394 13.1873,-5.302 -47.86528,-140.383678 c -0.0448,0.0044 -0.0959,0.0034 -0.13384,-0.02016 -0.002,-0.0013 -0.005,-0.0028 -0.007,-0.0041 -0.006,0 -0.0125,-3e-6 -0.0186,0 h -0.093 c -0.0264,0 -0.0527,8e-6 -0.0791,0 -0.0333,-8e-6 -0.0669,5e-6 -0.10025,0 z" />
      <path
         style="fill:#00ff00;fill-opacity:1;fill-rule:evenodd;stroke:#00ff00;stroke-width:0.130551"
         d="m 164.89438,196.89436 c 3.46897,-1.30152 6.30799,-2.409 6.30895,-2.46106 8.5e-4,-0.0521 -0.11669,-0.0947 -0.26145,-0.0947 -0.56286,0 -3.54627,-0.6309 -4.13571,-0.87458 -0.75743,-0.31312 -2.3783,-1.75637 -3.41175,-3.03788 -1.23611,-1.53279 -3.43386,-5.27726 -4.64826,-7.91957 -0.19939,-0.43384 -0.42631,-0.78881 -0.50428,-0.78881 -0.14891,0 -13.22418,4.86966 -13.32284,4.96186 -0.21244,0.19855 2.60947,5.57761 3.88556,7.40657 1.56186,2.23853 3.12003,3.79422 4.2441,4.23732 0.56353,0.22215 4.40114,0.93722 5.0298,0.93722 0.34587,0 2.52736,-0.75739 6.81588,-2.36641 z"
         id="path3764-6" />
      <rect
         style="fill:#00ff00;fill-opacity:1;fill-rule:evenodd;stroke:#00ff00;stroke-width:0.264583"
         id="rect10300-0"
         width="13.187252"
         height="5.301806"
         x="-158.3101"
         y="181.75185"
         ry="0.94656271"
         transform="scale(-1,1)" />
      <rect
         style="fill:#00ff00;fill-opacity:1;fill-rule:evenodd;stroke:#00ff00;stroke-width:0.264583"
         id="rect10302-8"
         width="0.50483346"
         height="1.0096669"
         x="-155.78421"
         y="182.91679"
         ry="0.25241673"
         transform="scale(-1,1)" />
      <path
         style="fill:#00ff00;stroke:#00ff00;stroke-width:0.264583px;stroke-linecap:butt;stroke-linejoin:miter;stroke-opacity:1"
         d="m 158.31012,181.75184 c 0,0 -1.45311,-0.53887 -1.45311,-0.53887 l -11.73415,5.84067"
         id="path10340-6" />
      <path
         style="fill:#00ff00;stroke:#00ff00;stroke-width:0.264583px;stroke-linecap:butt;stroke-linejoin:miter;stroke-opacity:1"
         d="M 123.81963,80.814212 H 108.92939"
         id="path10513-3" />
      <path
         style="fill:none;stroke:#000000;stroke-width:0.264583px;stroke-linecap:butt;stroke-linejoin:miter;stroke-opacity:1"
         d="M 97.082747,45.917597 Z"
         id="path12683" />
      <path
         style="fill:#00ff00;fill-opacity:1;fill-rule:evenodd;stroke:#00ff00;stroke-width:0.0233861;stroke-linecap:butt"
         d="m 96.185996,43.885591 -0.84555,-2.497328 0.06769,-0.0073 c 0.04686,-0.0051 1.146161,0.426207 3.572771,1.40163 3.368423,1.354 3.605753,1.455439 3.419813,1.461704 -0.04,0.0013 -0.82459,0.312264 -0.84396,0.334465 -0.006,0.0074 -0.0327,0.01709 -0.0585,0.02159 -0.0257,0.0045 -0.052,0.01503 -0.0585,0.02339 -0.006,0.0084 -0.0327,0.01889 -0.0585,0.02339 -0.0257,0.0045 -0.052,0.01503 -0.0585,0.02339 -0.006,0.0084 -0.0282,0.01786 -0.0484,0.02111 -0.0323,0.0052 -1.27251,0.501595 -1.424891,0.57032 -0.03216,0.0145 -0.08214,0.03549 -0.111085,0.04663 -0.02894,0.01114 -0.07893,0.03078 -0.111083,0.04364 l -0.11693,0.04677 c -0.03216,0.01286 -0.08741,0.03532 -0.122777,0.0499 -0.03537,0.01458 -0.08536,0.03514 -0.111086,0.04569 -0.277331,0.113715 -2.183619,0.871873 -2.209982,0.878943 -0.02749,0.0074 -0.217948,-0.530691 -0.880631,-2.487922 z"
         id="path16288" />
      <path
         style="fill:#00ff00;fill-opacity:1;fill-rule:evenodd;stroke:#00ff00;stroke-width:0.0233861;stroke-linecap:butt"
         d="m 99.025083,42.772039 -3.500847,-1.407162 0.426249,-0.01543 c 0.234439,-0.0085 1.352341,-0.02749 2.484226,-0.04226 1.131887,-0.01476 2.799899,-0.03662 3.706699,-0.04858 2.09504,-0.02762 7.73288,-0.05635 7.71741,-0.03933 -0.0151,0.01662 0.0419,-0.0065 -3.84701,1.556388 -1.82646,0.733999 -3.35796,1.350062 -3.40335,1.369033 l -0.0825,0.03449 z"
         id="path16327" />
      <path
         style="fill:#00ff00;fill-opacity:1;fill-rule:evenodd;stroke:#00ff00;stroke-width:0.0233861;stroke-linecap:butt"
         d="M 100.29391,43.268633 C 99.078413,42.779575 97.527264,42.15642 96.846904,41.883849 l -1.237015,-0.495586 0.137869,-0.01527 c 0.228349,-0.02529 2.90612,-0.0654 8.393162,-0.125704 1.14084,-0.01254 5.60484,-0.01495 5.61675,-0.003 0.004,0.0042 -0.0582,0.03393 -0.13858,0.06617 -0.0804,0.03224 -1.70629,0.686475 -3.61315,1.453859 -1.90685,0.767381 -3.47488,1.394865 -3.48452,1.394402 -0.01,-5.3e-4 -1.01202,-0.400979 -2.22751,-0.89004 z"
         id="path16366" />
      <path
         style="fill:none;stroke:#00ff00;stroke-width:0.264583px;stroke-linecap:butt;stroke-linejoin:miter;stroke-opacity:1"
         d="m 102.52596,44.179186 c -0.0142,0.01291 -0.0238,0.04299 -0.0425,0.03872 -0.0245,-0.0056 -0.0433,-0.07682 -0.0744,-0.09095 -0.027,-0.01228 -0.0542,-0.02469 -0.0827,-0.03307 -0.0379,-0.01114 -0.0769,-0.01794 -0.11576,-0.02479 -0.0578,-0.01019 -0.17165,-0.0021 -0.22324,-0.03307 -0.0551,-0.03307 -0.11024,-0.06615 -0.16536,-0.09922 -0.0156,-0.0093 -0.0251,-0.03319 -0.0414,-0.04134 -0.0792,-0.03961 -0.25535,-0.04736 -0.35553,-0.06615 -0.0125,-0.0024 -0.0913,-0.0038 -0.0992,-0.0083 -0.06,-0.03431 -0.12337,-0.07091 -0.1819,-0.107487 -0.0251,-0.01566 -0.0437,-0.04691 -0.0661,-0.06615 -0.0584,-0.05004 -0.13167,-0.08238 -0.19843,-0.115755 -0.0159,-0.0079 -0.0333,-0.02765 -0.0496,-0.03307 -0.0144,-0.0048 -0.0269,-0.0034 -0.0413,-0.0083 -0.0131,-0.0044 -0.0207,-0.01865 -0.0331,-0.02479 -0.007,-0.0037 -0.017,0.0026 -0.0248,0 -0.0438,-0.0146 -0.0895,-0.03533 -0.13229,-0.04961 -0.0325,-0.01085 -0.0636,-0.03944 -0.0992,-0.04961 -0.0125,-0.0036 -0.029,0.0041 -0.0413,0 -0.0192,-0.0064 -0.0357,-0.01815 -0.0579,-0.02479 -0.0121,-0.0036 -0.0724,-0.0155 -0.091,-0.02479 -0.005,-0.0028 -0.0122,-0.0039 -0.0165,-0.0083 -0.002,-0.0019 0.003,-0.0071 0,-0.0083 -0.0248,-0.0083 -0.0496,-0.01654 -0.0744,-0.02479 -0.0138,0 -0.0281,0.004 -0.0413,0 -0.0154,-0.0046 -0.0264,-0.01884 -0.0413,-0.02479 -0.078,-0.0312 -0.015,2.64e-4 -0.0579,-0.0083 -0.0231,-0.0046 -0.044,-0.01926 -0.0661,-0.02479 -0.01788,-0.0045 -0.04047,0.0058 -0.05788,0 -0.04736,-0.01579 -0.105582,-0.01836 -0.157097,-0.03307 -0.03278,-0.0094 -0.106516,-0.06059 -0.132291,-0.08268 -0.02186,-0.01873 -0.03258,-0.04101 -0.05788,-0.05788 -0.0053,-0.0035 -0.0283,0.0013 -0.03307,0 -0.03352,-0.0096 -0.06709,-0.01955 -0.09922,-0.03307 -0.047,-0.01979 -0.09455,-0.05141 -0.140559,-0.07441 -0.01233,-0.0062 -0.01506,-0.02334 -0.02479,-0.03307 -0.01384,-0.01384 -0.06285,-0.05292 -0.08268,-0.05788 -0.008,-0.0021 -0.01677,0.0021 -0.02479,0 -0.01447,-0.0036 -0.0032,-0.01815 -0.01654,-0.02479 -0.04153,-0.02077 -0.211124,-0.06112 -0.256315,-0.06615 -0.01643,-0.0019 -0.03426,0.0061 -0.04961,0 -0.0092,-0.0037 -0.01537,-0.01339 -0.02479,-0.01654 -0.01045,-0.0035 -0.02262,0.0035 -0.03307,0 -0.05219,-0.01741 -0.118353,-0.0491 -0.165365,-0.07441 -0.02734,-0.01474 -0.04117,-0.03534 -0.06615,-0.04961 -0.01654,-0.0083 -0.03307,-0.01654 -0.04961,-0.02479 -0.0028,0 -0.0058,0.0013 -0.0083,0 -0.0055,-0.0028 -0.0024,-0.01503 -0.0083,-0.01654 -0.02156,-0.0054 -0.04445,-0.0034 -0.06615,-0.0083 -0.04148,-0.0092 -0.08914,-0.06726 -0.140559,-0.08268 -0.01056,-0.0032 -0.02283,0.0041 -0.03307,0 -0.01844,-0.0074 -0.03184,-0.02418 -0.04961,-0.03307 -0.04752,-0.02376 -0.101764,-0.04261 -0.148828,-0.06615 -0.02442,-0.01222 -0.05797,-0.0083 -0.08268,-0.01654 -0.0258,-0.0086 0.0028,-0.0055 -0.0083,-0.01654 -0.01405,-0.01405 -0.03452,-0.02013 -0.04961,-0.03307 -0.03046,-0.02611 -0.05984,-0.04952 -0.09095,-0.07441 -0.01378,-0.01103 -0.02886,-0.02058 -0.04134,-0.03307 -0.0019,-0.0019 0.0026,-0.0074 0,-0.0083 -0.0079,-0.0026 -0.01683,0.0021 -0.02479,0 -0.03368,-0.009 -0.06532,-0.02492 -0.09922,-0.03307 -0.0047,-0.0011 -0.137211,-0.0213 -0.165365,-0.02479 -0.04887,-0.0061 -0.09978,0.0049 -0.148828,0 -0.04278,-0.0043 -0.178808,-0.03566 -0.223242,-0.05788 -0.03634,-0.01818 -0.116631,-0.09326 -0.14056,-0.124023 -0.01365,-0.01754 -0.01736,-0.04217 -0.03307,-0.05788 -0.0039,-0.0039 -0.01143,0.0021 -0.01654,0 -0.01844,-0.0074 -0.03183,-0.02418 -0.04961,-0.03307 -0.03381,-0.01691 -0.07368,-0.02445 -0.107487,-0.04134 -0.04042,-0.02021 -0.008,-0.01442 -0.04961,-0.02479 -0.0027,-7.94e-4 -0.0055,0 -0.0083,0 -0.01378,0 -0.02814,0.004 -0.04134,0 -0.0154,-0.0046 -0.02619,-0.01939 -0.04134,-0.02479 -0.02392,-0.0085 -0.05013,-0.0091 -0.07441,-0.01654 -0.03317,-0.01021 -0.07853,-0.03031 -0.107487,-0.04961 -0.0065,-0.0043 -0.0096,-0.01304 -0.01654,-0.01654 -0.02903,-0.01453 -0.06271,0.0011 -0.09095,-0.0083 -0.02646,-0.0088 -0.1984,-0.05784 -0.206705,-0.06615 -0.0019,-0.0019 0.0019,-0.0063 0,-0.0083 -0.0089,-0.0089 -0.08149,2.65e-4 -0.107487,-0.0083"
         id="path18116" />
      <path
         style="fill:none;stroke:#66ff00;stroke-width:0.065;stroke-linecap:butt;stroke-linejoin:miter;stroke-miterlimit:4;stroke-dasharray:none;stroke-opacity:1"
         d="m 95.488184,41.385947 1.112908,0.439778"
         id="path18300" />
      <rect
         style="fill:url(#linearGradient20990);fill-opacity:1;fill-rule:evenodd;stroke:#ffffff;stroke-width:0.0575368"
         id="rect18916-5"
         width="149.27487"
         height="13.913302"
         x="22.24246"
         y="134.94659"
         ry="0.71539116"
         transform="matrix(0.98783073,-0.15553281,0.0942431,0.99554921,0,0)" />
      <path
         style="fill:#00ff00;fill-opacity:1;fill-rule:evenodd;stroke:#00ff00;stroke-width:0.126208"
         d="m 151.78985,184.30382 c 3.49508,-1.41317 6.3694,-2.58734 6.38738,-2.60926 0.018,-0.0219 -7.70513,-22.72897 -17.16246,-50.4601 l -17.19514,-50.420248 -7.39778,-0.03256 c -4.06879,-0.01791 -7.3978,0.0158 -7.3978,0.07488 0,0.08314 32.61706,95.830228 35.48785,104.174238 0.35226,1.02387 0.7041,1.85728 0.78186,1.85202 0.0778,-0.005 3.001,-1.1658 6.49609,-2.57897 z"
         id="path1940-0" />
    </g>
  </g>
</svg>
