<?xml version="1.0" encoding="UTF-8" standalone="no"?>
<!-- Created with Inkscape (http://www.inkscape.org/) -->

<svg
   xmlns:dc="http://purl.org/dc/elements/1.1/"
   xmlns:cc="http://creativecommons.org/ns#"
   xmlns:rdf="http://www.w3.org/1999/02/22-rdf-syntax-ns#"
   xmlns:svg="http://www.w3.org/2000/svg"
   xmlns="http://www.w3.org/2000/svg"
   xmlns:sodipodi="http://sodipodi.sourceforge.net/DTD/sodipodi-0.dtd"
   xmlns:inkscape="http://www.inkscape.org/namespaces/inkscape"
   width="21cm"
   height="29.700001cm"
   viewBox="0 0 744.09449 1052.3622"
   id="svg2"
   version="1.1"
   inkscape:version="0.91 r13725"
   sodipodi:docname="disegno freccia indietro non attiva.svg">
  <defs
     id="defs4" />
  <sodipodi:namedview
     id="base"
     pagecolor="#ffffff"
     bordercolor="#666666"
     borderopacity="1.0"
     inkscape:pageopacity="0.0"
     inkscape:pageshadow="2"
     inkscape:zoom="1"
     inkscape:cx="396.33332"
     inkscape:cy="597.43759"
     inkscape:document-units="px"
     inkscape:current-layer="layer1"
     showgrid="false"
     inkscape:window-width="2560"
     inkscape:window-height="1377"
     inkscape:window-x="-8"
     inkscape:window-y="-8"
     inkscape:window-maximized="1"
     units="cm"
     showguides="true"
     inkscape:guide-bbox="true">
    <sodipodi:guide
       position="487.90368,1400.0715"
       orientation="0,1"
       id="guide5300" />
  </sodipodi:namedview>
  <metadata
     id="metadata7">
    <rdf:RDF>
      <cc:Work
         rdf:about="">
        <dc:format>image/svg+xml</dc:format>
        <dc:type
           rdf:resource="http://purl.org/dc/dcmitype/StillImage" />
        <dc:title></dc:title>
      </cc:Work>
    </rdf:RDF>
  </metadata>
  <g
     inkscape:label="Livello 1"
     inkscape:groupmode="layer"
     id="layer1">
    <g
       id="g5294"
       transform="matrix(1.0621497,0,0,1.0621497,-21.243006,115.16147)"
       style="opacity:0.3894081">
      <path
         inkscape:connector-curvature="0"
         id="path4147"
         d="m 568.71667,665.63125 c -10.18803,-20.84522 -30.34609,-43.0555 -53.20359,-58.62006 -29.33765,-19.97716 -63.79895,-31.63911 -105.99837,-35.8706 -16.33381,-1.63785 -57.48187,-1.19323 -66.21059,0.71544 l -1.38259,0.30232 -0.13454,22.57055 c -0.074,12.4138 -0.14315,28.83714 -0.15362,36.49628 -0.0103,7.65915 -0.15731,14.06248 -0.32632,14.22963 -0.16896,0.16715 -31.57019,-19.23401 -69.78048,-43.11368 -38.2103,-23.87967 -87.21219,-54.47829 -108.89318,-67.99693 -21.68094,-13.51862 -39.34524,-24.83574 -39.25397,-25.14913 0.15946,-0.54759 10.69686,-7.46198 91.34406,-59.93776 91.6704,-59.64838 116.16179,-75.5978 120.6832,-78.59202 2.66917,-1.76762 5.12725,-3.26936 5.46241,-3.33721 0.61646,-0.12478 0.85787,12.90017 0.98879,53.34988 l 0.0636,19.67665 8.14191,2.38634 c 37.64399,11.03323 79.04468,31.84991 110.835,55.72892 24.05668,18.06996 46.9105,40.37001 64.47385,62.91161 21.13637,27.12735 39.01517,60.83596 50.04077,94.34674 1.69652,5.15634 3.08456,9.86515 3.08456,10.46401 0,1.00397 -1.05632,1.4978 -7.11724,3.32722 -0.36588,0.11044 -1.56453,-1.63926 -2.66371,-3.8882 z"
         style="opacity:0.56000001;fill:#000000" />
      <circle
         r="344.97324"
         cy="532.36218"
         cx="370"
         id="path4149"
         style="opacity:0.56000001;fill:none;stroke:#000000;stroke-width:10.0535059;stroke-miterlimit:4;stroke-dasharray:none;stroke-opacity:1" />
    </g>
  </g>
</svg>
