<?xml version="1.0" encoding="UTF-8" standalone="no"?>
<!-- Created with Inkscape (http://www.inkscape.org/) -->

<svg
   xmlns:dc="http://purl.org/dc/elements/1.1/"
   xmlns:cc="http://creativecommons.org/ns#"
   xmlns:rdf="http://www.w3.org/1999/02/22-rdf-syntax-ns#"
   xmlns:svg="http://www.w3.org/2000/svg"
   xmlns="http://www.w3.org/2000/svg"
   xmlns:sodipodi="http://sodipodi.sourceforge.net/DTD/sodipodi-0.dtd"
   xmlns:inkscape="http://www.inkscape.org/namespaces/inkscape"
   width="21cm"
   height="29.700001cm"
   viewBox="0 0 744.09449 1052.3622"
   id="svg2"
   version="1.1"
   inkscape:version="0.91 r13725"
   sodipodi:docname="disegno freccia indietro.svg">
  <defs
     id="defs4" />
  <sodipodi:namedview
     id="base"
     pagecolor="#ffffff"
     bordercolor="#666666"
     borderopacity="1.0"
     inkscape:pageopacity="0.0"
     inkscape:pageshadow="2"
     inkscape:zoom="1"
     inkscape:cx="396.33332"
     inkscape:cy="357.43759"
     inkscape:document-units="px"
     inkscape:current-layer="layer1"
     showgrid="false"
     inkscape:window-width="2560"
     inkscape:window-height="1377"
     inkscape:window-x="-8"
     inkscape:window-y="-8"
     inkscape:window-maximized="1"
     units="cm"
     showguides="true"
     inkscape:guide-bbox="true">
    <sodipodi:guide
       position="487.90368,1400.0715"
       orientation="0,1"
       id="guide5300" />
  </sodipodi:namedview>
  <metadata
     id="metadata7">
    <rdf:RDF>
      <cc:Work
         rdf:about="">
        <dc:format>image/svg+xml</dc:format>
        <dc:type
           rdf:resource="http://purl.org/dc/dcmitype/StillImage" />
        <dc:title></dc:title>
      </cc:Work>
    </rdf:RDF>
  </metadata>
  <g
     inkscape:label="Livello 1"
     inkscape:groupmode="layer"
     id="layer1">
    <g
       id="g5310">
      <path
         inkscape:connector-curvature="0"
         id="path4147"
         d="m 582.81923,822.1615 c -10.82121,-22.14074 -32.23209,-45.73138 -56.51017,-62.26328 -31.16098,-21.21873 -67.76404,-33.60547 -112.58614,-38.09994 -17.34895,-1.73965 -61.05435,-1.26739 -70.32556,0.7599 l -1.46852,0.32111 -0.1429,23.9733 c -0.0786,13.18532 -0.15204,30.62936 -0.16316,38.76452 -0.0109,8.13516 -0.16709,14.93645 -0.34661,15.11399 -0.17946,0.17754 -33.53226,-20.4294 -74.11731,-45.79318 -40.58506,-25.36378 -92.6324,-57.8641 -115.66086,-72.22292 -23.0284,-14.3588 -41.79053,-26.37927 -41.69359,-26.71214 0.16937,-0.58162 11.36166,-7.92574 97.02106,-63.66287 97.36769,-63.35551 123.38121,-80.29618 128.18363,-83.47649 2.83506,-1.87748 5.44591,-3.47255 5.8019,-3.54462 0.65477,-0.13254 0.91118,13.70191 1.05024,56.66556 l 0.0675,20.89955 8.64793,2.53465 c 39.98355,11.71894 83.95728,33.82937 117.72336,59.19245 25.5518,19.19301 49.82597,42.879 68.48088,66.82155 22.44999,28.81331 41.43995,64.6169 53.15079,100.21036 1.80196,5.47681 3.27626,10.47827 3.27626,11.11435 0,1.06636 -1.12197,1.59089 -7.55957,3.534 -0.38862,0.11731 -1.66176,-1.74114 -2.82926,-4.12985 z"
         style="opacity:1;fill:#000000;fill-opacity:1" />
      <circle
         r="366.41321"
         cy="680.6098"
         cx="371.75238"
         id="path4149"
         style="opacity:1;fill:none;stroke:#000000;stroke-width:10.67832851;stroke-miterlimit:4;stroke-dasharray:none;stroke-opacity:1" />
    </g>
  </g>
</svg>
